<svg xmlns="http://www.w3.org/2000/svg" xmlns:xlink="http://www.w3.org/1999/xlink" width="480" height="480" version="1.1" viewBox="0 0 480 480"><g id="surface1"><path style="stroke:none;fill-rule:nonzero;fill:#fff;fill-opacity:1" d="M 297.214844 192 C 249.601562 192 210.816406 224.257812 210.816406 264 C 210.816406 303.742188 249.601562 336 297.214844 336 C 344.832031 336 383.617188 303.742188 383.617188 264 C 383.617188 224.257812 344.832031 192 297.214844 192 Z M 297.214844 307.199219 C 265.441406 307.199219 239.617188 285.695312 239.617188 259.199219 C 239.617188 232.703125 265.441406 211.199219 297.214844 211.199219 C 328.992188 211.199219 354.816406 232.703125 354.816406 259.199219 C 354.816406 285.695312 329.089844 307.199219 297.214844 307.199219 Z M 297.214844 307.199219"/><path style="stroke:none;fill-rule:nonzero;fill:#fff;fill-opacity:1" d="M 360 0 L 120 0 C 53.761719 0 0 53.761719 0 120 L 0 360 C 0 426.238281 53.761719 480 120 480 L 360 480 C 426.238281 480 480 426.238281 480 360 L 480 120 C 480 53.761719 426.238281 0 360 0 Z M 297.214844 422.398438 C 210.816406 422.398438 139.96875 361.921875 134.398438 285.695312 L 67.871094 339.457031 C 61.632812 344.449219 53.855469 346.753906 45.886719 345.886719 C 37.921875 345.023438 30.816406 341.183594 25.824219 334.945312 C 20.832031 328.703125 18.527344 320.929688 19.390625 312.960938 C 20.257812 304.992188 24.097656 297.886719 30.335938 292.894531 L 167.039062 182.398438 L 95.617188 182.398438 C 79.777344 182.398438 66.816406 169.441406 66.816406 153.601562 C 66.816406 137.761719 79.777344 124.800781 95.617188 124.800781 L 258.625 124.800781 L 226.945312 99.359375 C 214.558594 89.375 212.542969 71.230469 222.527344 58.847656 C 227.328125 52.894531 234.238281 49.054688 241.824219 48.289062 C 243.742188 48.097656 245.664062 48.097656 247.488281 48.289062 C 253.054688 48.769531 258.527344 50.878906 262.945312 54.527344 L 385.632812 153.121094 C 432.480469 180.289062 460.414062 226.175781 460.414062 276.097656 C 460.414062 356.734375 387.167969 422.398438 297.214844 422.398438 Z M 297.214844 422.398438"/></g></svg>