<svg xmlns="http://www.w3.org/2000/svg" xmlns:xlink="http://www.w3.org/1999/xlink" viewBox="0,0,256,256" width="480px" height="480px" fill-rule="nonzero"><g fill="#ffffff" fill-rule="nonzero" stroke="none" stroke-width="1" stroke-linecap="butt" stroke-linejoin="miter" stroke-miterlimit="10" stroke-dasharray="" stroke-dashoffset="0" font-family="none" font-weight="none" font-size="none" text-anchor="none" style="mix-blend-mode: normal"><g transform="scale(10.66667,10.66667)"><path d="M22,12c0,-1.039 -0.464,-1.964 -1.186,-2.605c-0.64,-3.143 -3.059,-5.575 -6.215,-6.216c-0.641,-0.718 -1.563,-1.179 -2.599,-1.179c-5.514,0 -10,4.486 -10,10c0,1.016 0.155,1.997 0.438,2.921c0.001,0.001 0,0.003 0.001,0.004c1.254,4.091 5.065,7.075 9.561,7.075c0.067,0 0.131,-0.009 0.198,-0.01c0.018,0.001 0.034,0.01 0.052,0.01c0.031,0 0.059,-0.015 0.089,-0.017c5.357,-0.181 9.661,-4.584 9.661,-9.983zM4.896,9.394c-0.285,0.323 -0.527,0.664 -0.736,1.014c0.741,-3.651 3.974,-6.408 7.84,-6.408c0.828,0 1.5,0.671 1.5,1.5c0,0.829 -0.672,1.5 -1.5,1.5c-0.228,0 -0.882,0 -1,0c-2.648,0 -4.701,0.806 -6.104,2.394zM14.07,17.614c-0.863,1.019 -2.324,1.734 -4.155,2.101c-2.117,-0.573 -3.889,-1.993 -4.927,-3.872c-0.032,-0.34 -0.256,-3.251 1.415,-5.134c0.313,-0.352 0.695,-0.631 1.111,-0.875c-0.319,0.658 -0.514,1.387 -0.514,2.166c0,2.757 2.243,5 5,5c1.085,0 2.083,-0.356 2.903,-0.946c-0.175,0.584 -0.449,1.107 -0.833,1.56zM12,15c-1.654,0 -3,-1.346 -3,-3c0,-1.654 1.346,-3 3,-3c1.908,0 3.459,-1.537 3.494,-3.437c1.297,0.601 2.348,1.648 2.948,2.943c-1.903,0.032 -3.442,1.584 -3.442,3.494c0,1.654 -1.346,3 -3,3zM15.201,19.327c0.138,-0.136 0.271,-0.274 0.395,-0.42c1.332,-1.572 1.404,-3.907 1.404,-5.907c0,-0.055 0,-0.764 0,-1c0,-0.828 0.672,-1.5 1.5,-1.5c0.828,0 1.5,0.672 1.5,1.5c0,3.273 -1.978,6.089 -4.799,7.327z"></path></g></g></svg>