<svg xmlns="http://www.w3.org/2000/svg" xmlns:xlink="http://www.w3.org/1999/xlink" id="Layer_1" x="0" y="0" version="1.1" viewBox="0 0 2000 2000" style="enable-background:new 0 0 2000 2000" xml:space="preserve"><style type="text/css">.st0{fill:#232323}.st0,.st1{display:none}.st2{display:inline}.st3{display:none;fill:url(#SVGID_1_)}.st4{fill:url(#SVGID_2_)}.st5{fill:url(#SVGID_3_)}.st5,.st6,.st7{display:none}.st6{fill:url(#SVGID_4_)}.st7{fill:url(#SVGID_5_)}.st8{display:inline;fill:url(#SVGID_6_)}</style><circle cx="1000" cy="1000" r="1000" class="st0"/><g id="Layer_1_1_" class="st1"><path d="M712.8,610.9h81.6c1.5,0,2.6,1.4,2.4,2.8l-17.1,96.5c-0.3,1.5,0.9,2.8,2.4,2.8h89.4c1.2,0,2.2-0.8,2.4-2 l17.4-98.2c0.2-1.2,1.2-2,2.4-2h81.6c1.5,0,2.6,1.4,2.4,2.8L930,884c-0.2,1.2-1.2,2-2.4,2H846c-1.5,0-2.6-1.4-2.4-2.8l16.3-92.6 c0.3-1.5-0.9-2.8-2.4-2.8h-89.4c-1.2,0-2.2,0.8-2.4,2L749.2,884c-0.2,1.2-1.2,2-2.4,2h-81.6c-1.5,0-2.6-1.4-2.4-2.8l47.5-270.3 C710.6,611.7,711.6,610.9,712.8,610.9z" class="st2"/><path d="M1170.6,842.8l-7.1,41.2c-0.2,1.2-1.2,2-2.4,2h-81.5c-1.5,0-2.7-1.4-2.4-2.9l6.5-37.5c0.3-1.5-0.9-2.9-2.4-2.9 H945.6c-1.5,0-2.7-1.4-2.4-2.9l12.3-71c0.1-0.5,0.3-1,0.7-1.3l160.2-156c0.5-0.4,1.1-0.7,1.7-0.7h90.4c1.5,0,2.7,1.4,2.4,2.9 L1183.2,772 M1097.1,770l10.1-58c0.3-1.5-0.9-2.9-2.4-2.9l0,0c-0.6,0-1.3,0.3-1.7,0.7l-58.4,57.6c-0.4,0.4-0.7,0.9-0.7,1.5v0.3 c-0.1,1.4,1,2.7,2.4,2.7h48.3C1095.9,772,1096.9,771.2,1097.1,770z" class="st2"/><path d="M1216.7,614.6c0.4-2.1,2.2-3.7,4.4-3.7H1353c78.6,0,112.4,41.3,103.4,94.3c-7.9,44.5-46.8,62.2-56.7,66 c-1.4,0.6-2.5,1.8-2.8,3.3l0,0c-0.2,0.9-0.1,1.9,0.3,2.8l47.9,102.3c1.4,3-0.8,6.4-4.1,6.4h-88.3c-1.8,0-3.4-1.1-4.1-2.7 l-35.8-81.1c-0.7-1.6-2.3-2.7-4.1-2.7h-34.6c-2.2,0-4.1,1.6-4.4,3.7l-13.6,79c-0.4,2.2-2.2,3.7-4.4,3.7h-77.3 c-2.8,0-4.9-2.5-4.4-5.3L1216.7,614.6z M1331.4,732.7c17.7,0,31.8-11.8,34.6-27.5c2.8-15.7-7.1-27.5-24.8-27.5h-45.4 c-2.2,0-4,1.6-4.4,3.7l-8.2,46c-0.5,2.8,1.6,5.3,4.4,5.3H1331.4z" class="st2"/></g><g id="Layer_2_1_" class="st1"><path d="M841,920l-94.3-102.1v102.2L841,920V817.9h86.5V1093H841v-98.3h-94.3v98.3h-86.5L841,920z" class="st2"/><path d="M1067,979v70.8v43.2h-86.5v-43.2L747,995l180-19.9l45.7-157.2h94.3V979 M980.5,979v-62.9h-3.9l-49.1,59v3.9 H980.5z" class="st2"/><path d="M1108.6,1006.5h-41.3v86.5h-86.5l86.1-208l49.5-67.1c78.6,0,119.9,41.3,119.9,94.3c0,51.1-47.2,66.8-47.2,66.8 v3.9L1067,940 M1116.5,939.7c17.7,0,29.5-11.8,29.5-27.5s-11.8-27.5-29.5-27.5h-49.1v55H1116.5z" class="st2"/></g><g id="Layer_3"><linearGradient id="SVGID_1_" x1="320.427" x2="1706.427" y1="1679.408" y2="376.208" gradientUnits="userSpaceOnUse"><stop offset="0" style="stop-color:#00e5ff"/><stop offset="1" style="stop-color:#0295ff"/></linearGradient><path d="M1739.4,1804.9H280.6c-24.5,0-44.5-19.9-44.5-44.5V301.6c0-24.5,19.9-44.5,44.5-44.5h1458.8 c24.5,0,44.5,19.9,44.5,44.5v1458.8C1783.9,1785,1764,1804.9,1739.4,1804.9z" class="st3"/><g><linearGradient id="SVGID_2_" x1="301.58" x2="1687.58" y1="1659.363" y2="356.163" gradientUnits="userSpaceOnUse"><stop offset="0" style="stop-color:#00e5ff"/><stop offset="1" style="stop-color:#0295ff"/></linearGradient><path d="M431.3,376.2H835l-41.5,477.2H1234l41.7-477.2h403.7L1569.9,1628H1166l37.2-426.1H762.7L725.5,1628H322 L431.3,376.2z" class="st4"/><linearGradient id="SVGID_3_" x1="287.159" x2="1673.159" y1="1644.026" y2="340.827" gradientUnits="userSpaceOnUse"><stop offset="0" style="stop-color:#00e5ff"/><stop offset="1" style="stop-color:#0295ff"/></linearGradient><path d="M1096.8,687.8l31.6-361.2H1319l371.6,341.2l-17.4,199.6h-411.6l-9.6,109.5h-180.6l9.6-109.5H970.6l15.8-179.6 H1096.8L1096.8,687.8z M1277.4,687.8H1438l0.8-10l-139.6-125.4h-10L1277.4,687.8z" class="st5"/><linearGradient id="SVGID_4_" x1="598.146" x2="1984.146" y1="1974.772" y2="671.572" gradientUnits="userSpaceOnUse"><stop offset="0" style="stop-color:#00e5ff"/><stop offset="1" style="stop-color:#0295ff"/></linearGradient><path d="M1663.5,976.4l-19.4,221h-221l-9.2,105.5l209.1,135.6l-22,251.1l-265.4-180.8h-10c0,0-50.7,120.5-181.3,120.5 c-135.6,0-231.9-105.5-214.3-306.3l30.3-346.5L1663.5,976.4L1663.5,976.4z M1252.4,1197.4h-140.6l-11,125.5 c-3.9,45.2,23.5,75.3,63.7,75.3c40.2,0,73-30.1,76.9-75.3L1252.4,1197.4z" class="st6"/><linearGradient id="SVGID_5_" x1="266.297" x2="1652.297" y1="1621.838" y2="318.638" gradientUnits="userSpaceOnUse"><stop offset="0" style="stop-color:#00e5ff"/><stop offset="1" style="stop-color:#0295ff"/></linearGradient><path d="M600.3,1413.2L600.3,1413.2c-63.5,0-110.4-51.4-104.8-114.9l0,0c5.6-63.5,61.5-114.9,125.1-114.9l0,0 c63.5,0,110.4,51.4,104.8,114.9l0,0C719.8,1361.7,663.9,1413.2,600.3,1413.2z" class="st7"/></g><g class="st1"><linearGradient id="SVGID_6_" x1="331.201" x2="1717.201" y1="1690.867" y2="387.667" gradientUnits="userSpaceOnUse"><stop offset="0" style="stop-color:#00e5ff"/><stop offset="1" style="stop-color:#0295ff"/></linearGradient><path d="M935.9,1146.4l21.9-39.1c0.7-1.2,2-1.6,3-0.8c3.9,2.7,14.1,8.7,26,8.7c20.1,0,34-12.8,34-31.3v-65.2 c0-1.6-1-2.9-2.3-2.9h-60.3c-1.3,0-2.3-1.3-2.3-2.9v-48.2c0-1.6,1-2.9,2.3-2.9h81.1c27.4,0,49.6,28,49.6,62.4v59.7 c0,48.3-37.1,82.5-95.9,82.5c-27.7,0-49.3-11.4-56.3-15.5C935.4,1149.9,935,1147.9,935.9,1146.4z" class="st8"/></g></g></svg>