<svg xmlns="http://www.w3.org/2000/svg" xmlns:xlink="http://www.w3.org/1999/xlink" width="480" height="480" fill-rule="nonzero" viewBox="0 0 256 256"><g fill="#ddd" fill-opacity="0" fill-rule="nonzero" stroke="none" stroke-dashoffset="0" stroke-linecap="butt" stroke-linejoin="miter" stroke-miterlimit="10" stroke-width="1" font-family="none" font-size="none" font-weight="none" text-anchor="none" style="mix-blend-mode:normal"><path id="bgRectangle" d="M0,256v-256h256v256z"/></g><g fill="#fff" fill-rule="nonzero" stroke="none" stroke-dashoffset="0" stroke-linecap="butt" stroke-linejoin="miter" stroke-miterlimit="10" stroke-width="1" font-family="none" font-size="none" font-weight="none" text-anchor="none" style="mix-blend-mode:normal"><g><path d="M6,4c-1.105,0 -2,0.895 -2,2v18c0,1.105 0.895,2 2,2h18c1.105,0 2,-0.895 2,-2v-18c0,-1.105 -0.895,-2 -2,-2zM19.66016,9.24805c0.622,0 1.04688,0.3965 1.04688,0.9375c0,0.541 -0.42488,0.9375 -1.04687,0.9375c-0.615,0 -1.04492,-0.3965 -1.04492,-0.9375c0,-0.541 0.42992,-0.9375 1.04492,-0.9375zM11.79297,9.95313h1.98242l3.50586,9.86523h-1.89258l-0.83398,-2.52148h-3.62891l-0.84961,2.52148h-1.7832zM12.6875,11.83203l-1.35156,4.06836h2.80859l-1.33984,-4.06836zM18.82031,12.33984h1.6875v7.47852h-1.6875z" transform="scale(8.53333,8.53333)"/></g></g></svg>