<svg xmlns="http://www.w3.org/2000/svg" width="2800" height="2800" preserveAspectRatio="xMidYMid meet" version="1.0" viewBox="0 0 2800 2800"><g fill="#fff"><path d="M1398.9 2123.4 c-0.8 -1.7 -3.5 -6.2 -5.9 -10.1 -2.2 -3.8 -4.6 -8 -5.2 -9.1 -0.7 -1.1 -3.6 -6.4 -6.7 -11.6 -3.1 -5.3 -7.1 -12.3 -9.1 -15.7 -2 -3.5 -6.2 -10.6 -9.4 -16.1 -3.2 -5.5 -6.3 -11.2 -6.7 -12.6 -0.6 -1.5 -1.4 -2.8 -2 -2.8 -0.7 0 -2 -2.1 -3.1 -4.5 -1 -2.5 -2.2 -4.9 -2.7 -5.3 -0.4 -0.4 -2.2 -3.5 -4.1 -7 -1.8 -3.5 -3.6 -6.6 -4.2 -7 -0.6 -0.4 -2.1 -2.9 -3.5 -5.6 -1.3 -2.7 -3.2 -6.2 -4.1 -7.7 -1.7 -2.8 -9.7 -16.5 -16.7 -28.4 -2.1 -3.6 -4.2 -7.4 -4.8 -8.5 -1.5 -3.1 -13.7 -24.2 -17.5 -30.2 -2 -3.1 -4.6 -7.8 -5.9 -10.5 -2.7 -5.2 -5.5 -10.1 -6.6 -11.2 -1.3 -1.3 -4.2 -6.3 -5.7 -9.8 -1.7 -3.9 -11.2 -20 -12.5 -21 -0.4 -0.4 -1.7 -2.9 -2.8 -5.6 -1.1 -2.7 -2.4 -5.2 -2.8 -5.6 -1.4 -1 -12.6 -20.3 -12.6 -21.6 0 -0.6 -1.4 -3.1 -3.2 -5.5 -4.1 -5.9 -5.9 -9 -9.4 -15.7 -1.5 -3.1 -3.9 -7.4 -5.5 -9.8 -3.1 -5 -16.1 -27.6 -17.5 -30.2 -1 -2 -4.1 -7.3 -14.1 -24.6 -3.1 -5.2 -5.9 -10.1 -6.2 -10.9 -0.3 -0.7 -1.3 -2.4 -2.2 -3.5 -1 -1.1 -4.5 -7.1 -7.7 -13.3 -3.4 -6.2 -6.4 -11.5 -6.9 -11.9 -0.4 -0.4 -1.8 -2.5 -2.9 -4.9 -1.1 -2.2 -2.9 -5 -3.8 -6 -1 -1 -1.8 -2.4 -1.8 -3.1 0 -1 -12.5 -23 -18.1 -32.2 -5.9 -9.4 -12.7 -21.6 -13.4 -23.8 l-0.8 -2.8 -1.4 0 c-0.7 0 -1.3 -0.6 -1.3 -1.3 0 -1 -9.8 -18.5 -16.9 -30.2 -1.4 -2.2 -3.9 -6.7 -5.5 -9.8 -1.5 -3.1 -4.2 -7.8 -5.7 -10.5 -1.7 -2.7 -7.7 -13 -13.4 -23.1 -5.7 -9.9 -11.1 -19.2 -11.8 -20.3 -0.7 -1.1 -1.7 -3.2 -2.1 -4.5 -0.6 -1.4 -1.4 -2.5 -2 -2.5 -0.6 0 -3.1 -3.9 -5.5 -8.7 -4.9 -9.8 -7.4 -14 -8.7 -15.1 -0.6 -0.4 -1.3 -2.1 -1.8 -3.8 l-1 -3.2 -1.4 0 -1.3 0 0 -1.7 c0 -1 -3.8 -8.1 -8.4 -15.8 -4.6 -7.7 -8.4 -14.8 -8.4 -15.7 0 -1 -0.6 -1.8 -1.1 -1.8 -0.7 0 -2.7 -2.7 -4.3 -5.9 -1.7 -3.4 -4.9 -9.1 -7.1 -13 -2.2 -3.8 -4.8 -8.3 -5.6 -9.8 -0.7 -1.5 -3.9 -6.9 -6.9 -11.9 -3.1 -5 -7 -11.6 -8.5 -14.7 -1.7 -3.1 -3.8 -6.9 -4.6 -8.4 -2.2 -3.8 -12 -20.4 -16.4 -28 -3.9 -6.7 -13.7 -23.7 -16.4 -28 -0.8 -1.5 -2.8 -5 -4.1 -7.7 -1.4 -2.7 -2.9 -5.2 -3.5 -5.6 -0.4 -0.4 -2.4 -3.5 -4.1 -7 -1.7 -3.5 -3.6 -6.6 -4.1 -7 -0.6 -0.4 -2.1 -2.9 -3.5 -5.6 -1.3 -2.7 -3.2 -6.2 -4.1 -7.7 -1.7 -2.8 -9.7 -16.5 -16.7 -28.4 -2.1 -3.6 -4.3 -7.6 -4.9 -8.7 -1.3 -2.8 -16.8 -29.5 -18.6 -32.2 -0.8 -1.1 -2.8 -4.6 -4.3 -7.7 -3.2 -6.6 -5.9 -10.9 -7 -11.9 -0.6 -0.4 -1.3 -2.1 -1.8 -3.8 l-1 -3.2 -1.4 0 -1.3 0 0 -1.7 c0 -1.7 -10.9 -20.9 -12.6 -22.1 -0.4 -0.4 -1.7 -2.9 -2.8 -5.6 -1.1 -2.7 -2.4 -5.2 -2.8 -5.6 -1.7 -1.3 -12.6 -20.4 -12.6 -22.1 l0 -1.7 -1.3 0 -1.4 0 -1 -3.1 c-0.6 -1.8 -1.3 -3.5 -1.8 -3.9 -1.1 -1 -3.8 -5.3 -7 -11.9 -1.5 -3.1 -3.5 -6.6 -4.3 -7.7 -1.8 -2.7 -17.4 -29.4 -18.6 -32.2 -0.6 -1.1 -2.8 -5 -4.9 -8.7 -7 -11.9 -15 -25.6 -16.7 -28.4 -0.8 -1.5 -2.8 -5 -4.1 -7.7 -1.4 -2.7 -2.9 -5.2 -3.5 -5.6 -0.4 -0.4 -2.4 -3.5 -4.1 -7 -1.7 -3.5 -3.5 -6.6 -4.1 -7 -0.4 -0.4 -1.8 -2.5 -2.9 -4.9 -1.1 -2.2 -2.9 -5 -3.9 -6 -0.8 -1 -1.7 -2.4 -1.7 -2.9 0 -0.7 -2.7 -5.7 -6 -11.2 -3.2 -5.5 -7.4 -12.7 -9.4 -16.2 -3.8 -6.6 -13.6 -23.4 -16.4 -28 -0.8 -1.5 -2.9 -5.3 -4.6 -8.4 -1.5 -3.1 -3.6 -6.9 -4.6 -8.4 -5 -8.1 -10.4 -17.1 -11.2 -18.9 -0.6 -1.1 -2.9 -5.2 -5.2 -9.1 -2.1 -3.8 -5.5 -9.7 -7.1 -12.9 -1.7 -3.4 -3.6 -6 -4.3 -6 -0.6 0 -1.1 -0.8 -1.1 -1.7 0 -1 -3.8 -8.1 -8.4 -15.8 -4.6 -7.7 -8.4 -14.8 -8.4 -15.7 0 -1 -0.6 -1.8 -1.1 -1.8 -0.7 0 -2.7 -2.7 -4.3 -5.9 -1.7 -3.4 -4.9 -9.1 -7.1 -13 -2.2 -3.8 -4.5 -8.1 -5 -9.4 -0.4 -1.4 -1.4 -2.5 -2 -2.5 -0.6 0 -1.4 -1.1 -2 -2.4 -0.4 -1.4 -1.4 -3.5 -2.1 -4.6 -5.9 -9.4 -18.3 -32.1 -18.3 -33.3 0 -1 -0.6 -1.7 -1.1 -1.7 -0.7 0 -2.7 -2.7 -4.3 -6 -1.7 -3.2 -4.9 -9 -7.1 -12.9 -2.2 -3.8 -4.9 -8.5 -6 -10.5 -1 -2 -5 -9 -9 -15.5 -3.8 -6.7 -7.4 -13 -8 -14 -0.6 -1.1 -1.7 -3.2 -2.7 -4.8 -2.2 -3.6 -11.9 -20.3 -16.4 -28 -2 -3.5 -6.2 -10.6 -9.4 -16.1 -3.2 -5.5 -6.3 -11.2 -6.7 -12.6 -0.6 -1.5 -1.4 -2.8 -2 -2.8 -0.6 0 -1.8 -2.2 -2.9 -4.9 -1.1 -2.7 -2.4 -4.9 -2.9 -4.9 -0.6 0 -1.3 -1 -1.8 -2.1 l-0.7 -2.1 177 0 177.1 0 0 1.3 c0 0.7 5 9.9 11.2 20.3 6.2 10.4 11.9 20.4 12.6 22.1 1.4 3.4 4.3 8.3 5.6 9.5 1.1 1.1 3.9 5.9 6.9 11.9 3.2 6.2 6 10.8 7.3 11.9 0.6 0.4 1.3 2.1 1.8 3.9 l1 3.1 1.4 0 1.3 0 0 1.8 c0 0.8 3.8 8 8.4 15.7 4.6 7.7 8.4 14.8 8.4 15.8 0 0.8 0.6 1.7 1.1 1.7 0.7 0 2.7 2.7 4.3 6 1.7 3.2 5 9.1 7.1 12.9 2.2 3.9 4.6 8 5.2 9.1 0.8 1.8 5.5 9.5 11.2 18.9 1 1.5 2.8 5 4.2 7.7 1.3 2.7 3.2 5.7 4.2 6.7 1 1 1.8 2.5 1.8 3.2 l0 1.3 -69.2 0.3 -69.3 0.4 6.4 10.5 c3.5 5.7 7.3 12.5 8.4 14.7 2 4.3 4.8 9.2 6 10.5 1.3 1.3 4.2 6.3 5.7 9.8 2.1 5 11.5 20.3 12.7 20.7 0.6 0.3 1.1 1.3 1.1 2.1 0 1 3.8 8 8.4 15.7 4.6 7.7 8.4 14.7 8.4 15.7 0 0.8 0.6 1.8 1.3 2.1 1.1 0.4 6.3 8.8 11.3 18.6 1.5 3.1 4.5 8.1 6.3 11.2 2 3.1 5.2 8.4 7.1 11.9 2 3.5 5.3 9.5 7.6 13.3 2.2 3.9 4.6 8 5.2 9.1 1 2.1 16 28 18.5 32.2 5.9 9.4 12.7 21.6 13.4 23.8 0.6 1.5 1.4 2.8 2 2.8 0.6 0 1.8 2.2 2.9 4.9 1.1 2.7 2.4 4.9 2.8 4.9 0.4 0 2 2.5 3.4 5.6 1.4 3.1 3.2 6.4 4.1 7.4 1 0.8 2.8 3.9 4.2 6.6 1.4 2.7 3.2 6.2 4.2 7.7 1 1.5 5.2 8.8 9.4 16.1 4.2 7.3 8.4 14.6 9.4 16.1 1 1.5 2.1 3.6 2.7 4.8 0.6 1 4.2 7.3 8 14 3.9 6.6 8 13.6 9 15.5 1.1 2 3.9 6.7 6.2 10.5 2.2 3.9 4.5 8.1 4.9 9.5 0.6 1.3 1.4 2.4 2 2.4 0.6 0 1.5 1.5 2 3.5 l0.8 3.5 1.4 0 1.4 0 0 1.8 c0 0.8 3.8 8 8.4 15.7 4.6 7.7 8.4 14.7 8.4 15.7 0 0.8 0.6 1.8 1.1 2.1 1.3 0.4 10.6 15.7 12.7 20.7 1.5 3.5 4.5 8.5 5.7 9.8 1.1 1.1 3.9 5.9 6.9 11.9 1.5 3.1 3.5 6.6 4.3 7.7 1.8 2.7 17.4 29.4 18.6 32.2 0.6 1.1 2.8 5 4.9 8.7 7 11.9 15 25.6 16.7 28.4 0.8 1.5 2.8 5 4.1 7.7 1.4 2.7 2.9 5.2 3.4 5.6 0.4 0.4 2.2 3.5 4.1 7 1.8 3.5 3.6 6.6 4.2 7 0.6 0.4 2.1 2.9 3.5 5.6 1.3 2.7 3.2 6.2 4.1 7.7 3.2 5.5 12.9 22 16.4 28 2 3.5 6.2 10.8 9.5 16.2 3.2 5.5 5.9 10.5 5.9 11.2 0 0.6 0.8 2 1.8 2.9 1 1 2.9 4.1 4.2 6.7 1.4 2.7 3.2 6.2 4.2 7.7 5.7 9.4 10.4 17.1 11.2 18.9 0.6 1.1 2.9 5.3 5.2 9.1 2.1 3.9 5.5 9.7 7.1 13 1.7 3.2 3.6 5.9 4.3 5.9 0.6 0 1.1 0.7 1.1 1.7 0 1 3.5 7.6 7.7 14.6 4.2 7.1 8.3 14.4 9.1 16.2 1.4 3.2 4.3 8.3 5.6 9.5 1.1 1.1 3.5 5.5 8.5 15.1 2.4 4.8 4.9 8.7 5.5 8.7 0.6 0 1.5 1.5 2 3.5 l0.8 3.5 1.4 0 1.4 0 0 1.8 c0 0.8 3.8 8 8.4 15.7 4.6 7.7 8.4 14.8 8.4 15.8 0 0.8 0.6 1.7 1.1 1.7 0.7 0 2.7 2.7 4.3 6 3.2 6 4.1 7.4 19.7 34.9 5 8.7 9.2 16.7 9.5 17.6 0.3 0.8 1 1.7 1.7 1.7 0.7 0 1.5 1.3 2.1 2.8 0.4 1.4 3.5 7.1 6.7 12.6 3.2 5.5 7.4 12.7 9.4 16.1 2 3.4 5.6 9.7 8.1 13.9 2.4 4.3 4.5 8.4 4.5 9.2 0 3.6 3.1 0.7 7.8 -7.7 0.8 -1.5 4.6 -8.3 8.5 -14.8 3.8 -6.7 7.4 -13 8 -14 0.6 -1.1 1.7 -3.2 2.7 -4.8 1 -1.5 5.2 -8.8 9.4 -16.1 4.2 -7.3 8.4 -14.6 9.4 -16.1 1 -1.5 2.8 -5 4.2 -7.7 1.4 -2.7 3.2 -5.7 4.2 -6.6 0.8 -1 2.7 -4.3 4.1 -7.4 1.4 -3.1 2.9 -5.6 3.4 -5.6 0.4 0 1.7 -2.2 2.8 -4.9 1.1 -2.7 2.4 -4.9 2.9 -4.9 0.6 0 1.4 -1.3 2 -2.8 0.7 -2.2 7.6 -14.4 13.4 -23.8 2.5 -4.2 17.5 -30.1 18.5 -32.2 2.9 -5.9 22.1 -38.4 23.2 -39.2 0.6 -0.4 1.8 -2.9 2.9 -5.6 1.1 -2.7 2.8 -5.7 3.8 -6.7 1 -1 1.8 -2.8 1.8 -3.9 l0 -2 1.3 0 1.1 0 4.5 -8.7 c4.5 -9 7.3 -13.9 8.5 -15.1 1.3 -1.3 4.2 -6.3 5.6 -9.5 0.8 -1.8 4.9 -9.1 9.1 -16.2 4.2 -7 7.7 -13.6 7.7 -14.6 0 -1 0.6 -1.7 1.1 -1.7 0.7 0 2.7 -2.7 4.3 -5.9 1.7 -3.4 4.9 -9.1 7.1 -13 2.2 -3.8 4.8 -8.3 5.6 -9.8 0.7 -1.5 3.9 -6.9 6.9 -11.9 3.1 -5 6.7 -11.3 8.1 -14 1.3 -2.7 3.2 -5.7 4.2 -6.7 1 -1 1.8 -2.4 1.8 -2.9 0 -0.7 2.7 -5.7 6 -11.2 6.7 -11.5 6.2 -10.5 16.4 -28.1 4.2 -7.3 8.4 -14.3 9.1 -15.5 0.8 -1.3 4.5 -8 8.3 -14.7 3.8 -6.9 7.3 -12.7 7.8 -13.2 0.4 -0.4 2 -3.1 3.2 -5.9 1.4 -2.8 3.1 -5.6 3.8 -6 l1.4 -0.8 0 1.3 c0 0.7 3.1 6.2 6.7 12.3 3.6 6 7.8 13.3 9.1 16 2.7 5.3 5.5 10.1 6.6 11.2 1.3 1.3 4.2 6.3 5.6 9.5 0.8 1.8 4.9 9.1 9.1 16.2 4.2 7 7.7 13.6 7.7 14.4 0 0.8 0.6 1.8 1.1 2.1 1.3 0.4 10.6 15.7 12.7 20.7 1.5 3.5 4.5 8.5 5.7 9.8 1.1 1.1 3.9 5.9 7 11.9 1.5 3.1 4.3 8.1 6.3 11.2 1.8 3.1 6.2 10.4 9.4 16.1 3.2 5.7 6.7 11.8 7.7 13.3 0.8 1.5 2.9 5.3 4.6 8.4 1.5 3.1 3.6 6.7 4.6 8.1 l1.7 2.4 -1.7 2.5 c-1 1.3 -3.1 4.9 -4.6 8 -1.5 3.1 -4.5 8.1 -6.3 11.2 -2 3.1 -5.2 8.4 -7.1 11.9 -2 3.5 -5.3 9.5 -7.6 13.3 -2.2 3.9 -4.6 8 -5.2 9.1 -1 2.1 -16 28 -18.5 32.2 -5.7 9 -12.7 21.6 -12.7 22.5 0 0.6 -0.8 2 -1.7 2.9 -1 1 -2.8 3.8 -3.9 6 -1.1 2.4 -2.5 4.5 -2.9 4.9 -0.4 0.4 -3.9 6.3 -7.7 13.2 -3.8 6.7 -7.4 13.4 -8.3 14.7 -0.7 1.3 -4.9 8.3 -9.1 15.5 -4.2 7.3 -8.4 14.6 -9.4 16.1 -1 1.5 -2.1 3.6 -2.7 4.8 -0.8 1.7 -3.9 7 -17.1 29.5 -4.3 7.4 -10.1 17.8 -13 23.5 -1.7 3.2 -3.6 5.9 -4.3 5.9 -0.6 0 -1.1 0.7 -1.1 1.7 0 1.7 -10.9 20.9 -12.6 22.1 -0.4 0.4 -1.7 2.9 -2.8 5.6 -1.1 2.7 -2.4 5.2 -2.8 5.6 -1.7 1.3 -12.6 20.4 -12.6 22.1 l0 1.7 -1.3 0 -1.4 0 -1 3.2 c-0.6 1.7 -1.3 3.4 -1.8 3.8 -1.1 1 -3.8 5.3 -7 11.9 -1.5 3.1 -3.5 6.6 -4.3 7.7 -1.8 2.7 -17.4 29.4 -18.6 32.2 -0.6 1.1 -2.8 5 -4.9 8.7 -7 11.9 -15 25.6 -16.7 28.4 -0.8 1.5 -2.8 5 -4.1 7.7 -1.4 2.7 -2.9 5.2 -3.5 5.6 -0.4 0.4 -2.4 3.5 -4.1 7 -1.7 3.5 -3.6 6.6 -4.1 7 -0.6 0.4 -2.1 2.9 -3.5 5.6 -1.3 2.7 -3.2 6.2 -4.1 7.7 -2.7 4.3 -12.5 21.3 -16.4 28 -4.3 7.6 -14.1 24.2 -16.4 28 -0.8 1.5 -2.9 5.3 -4.6 8.4 -1.5 3.1 -5.5 9.7 -8.5 14.7 -2.9 5 -6.2 10.4 -6.9 11.9 -0.8 1.5 -3.4 6 -5.6 9.8 -2.2 3.9 -5.5 9.7 -7.1 13 -1.7 3.2 -3.6 5.9 -4.3 5.9 -0.6 0 -1.1 0.8 -1.1 1.8 0 0.8 -3.8 8 -8.4 15.7 -4.6 7.7 -8.4 14.7 -8.4 15.7 0 0.8 -0.6 1.8 -1.1 2.1 -0.7 0.3 -3.9 5.2 -7.1 10.9 -3.4 5.7 -6.6 11.5 -7.3 12.6 -0.7 1.1 -1.7 3.2 -2.1 4.6 -0.6 1.3 -1.4 2.4 -2 2.4 -0.6 0 -1.5 1.1 -2 2.5 -0.4 1.3 -1.7 3.8 -2.8 5.5 l-1.8 3.2 -1.5 -3.2z"/><path d="M1469.2 1334.9 c-0.6 -1.5 -1.4 -3.1 -2 -3.5 -1.3 -1.1 -9.5 -14.8 -11.9 -19.9 -2 -4.6 -4.9 -9.5 -6.3 -10.9 -1.3 -1.3 -4.2 -6.2 -5.6 -9.5 -0.7 -1.7 -6.3 -11.5 -12.3 -21.7 -6 -10.2 -11.3 -19.5 -11.9 -20.6 -0.6 -1.1 -2.8 -5 -4.9 -8.7 -7 -11.9 -15 -25.6 -16.7 -28.4 -0.8 -1.5 -2.8 -5 -4.1 -7.7 -1.4 -2.7 -3.4 -5.7 -4.3 -6.7 -1 -1 -1.8 -2.4 -1.8 -2.9 0 -0.7 -2.7 -5.7 -5.9 -11.2 -6.9 -11.5 -6.3 -10.5 -16.5 -28.1 -10.2 -17.6 -9.7 -16.7 -16.4 -28.1 -3.4 -5.5 -6 -10.5 -6 -11.2 0 -0.6 -0.8 -2 -1.8 -2.9 -1 -1 -2.9 -4.1 -4.3 -6.7 -1.3 -2.7 -3.2 -6.2 -4.1 -7.7 -1.7 -2.8 -9.7 -16.5 -16.7 -28.4 -2.1 -3.6 -4.3 -7.6 -4.9 -8.7 -0.6 -1.1 -5.9 -10.4 -11.9 -20.6 -6 -10.2 -11.6 -20 -12.3 -21.7 -1.4 -3.4 -4.3 -8.3 -5.6 -9.5 -1.3 -1.3 -4.2 -6.3 -5.7 -9.8 -2.1 -5 -11.5 -20.3 -12.7 -20.7 -0.6 -0.3 -1.1 -1.3 -1.1 -2.1 0 -1 -3.8 -8 -8.4 -15.7 -4.6 -7.7 -8.4 -14.8 -8.4 -15.7 0 -1 -0.6 -1.8 -1.1 -1.8 -0.7 0 -2.7 -2.7 -4.3 -5.9 -1.7 -3.4 -4.9 -9.1 -7.1 -13 -2.2 -3.8 -4.9 -8.5 -6 -10.5 -1 -2 -5 -9 -9 -15.5 -3.8 -6.7 -7.4 -13 -8 -14 -0.6 -1.1 -1.7 -3.2 -2.7 -4.8 -1 -1.5 -5.2 -8.8 -9.4 -16.1 -10.2 -17.6 -9.7 -16.7 -16.4 -28 -3.2 -5.5 -6.3 -11.2 -6.7 -12.6 -0.6 -1.5 -1.4 -2.8 -2 -2.8 -0.6 0 -1.8 -2.2 -2.9 -4.9 -1.1 -2.7 -2.4 -4.9 -2.8 -4.9 -0.4 0 -2 -2.5 -3.4 -5.6 -1.4 -3.1 -3.2 -6.4 -4.1 -7.4 -1 -0.8 -2.8 -3.9 -4.2 -6.6 -1.4 -2.7 -4.2 -7.8 -6.3 -11.5 -9 -15.3 -15.1 -25.8 -16.7 -28.4 -1 -1.5 -2.1 -3.6 -2.7 -4.8 -1.3 -2.4 -14.1 -24.6 -17.5 -30.2 -1.4 -2.2 -3.9 -6.7 -5.5 -9.8 -3.9 -7.7 -10.1 -18.1 -11.1 -18.9 -0.7 -0.6 -3.4 -5.5 -6.9 -12.9 l-0.6 -1.1 575.5 0 575.5 0 0 2.1 0 2.1 -1.4 0 -1.4 0 -0.8 3.5 c-0.4 2 -1.4 3.5 -2 3.5 -0.6 0 -1.5 1.1 -2 2.5 -0.6 1.3 -2.8 5.6 -5 9.4 -2.4 3.9 -4.6 8.1 -5 9.5 -0.6 1.3 -1.4 2.4 -2 2.4 -0.6 0 -1.4 1.1 -2 2.5 -0.4 1.3 -1.4 3.4 -2.1 4.5 -5.6 9.1 -18.3 32.1 -18.3 33.2 0 0.8 -0.6 1.8 -1.3 2.1 -1.1 0.4 -6.3 8.8 -11.3 18.6 -1.5 3.1 -4.5 8.1 -6.3 11.2 -2 3.1 -5.2 8.4 -7.1 11.9 -2 3.5 -5.3 9.5 -7.6 13.3 -2.2 3.9 -4.6 8 -5.2 9.1 -1 2.2 -16.2 28.6 -18.6 32.2 -0.7 1.1 -3.6 6.2 -6.6 11.2 -2.9 5 -6 10.4 -7 11.9 -0.8 1.5 -2.8 5 -4.1 7.7 -1.4 2.7 -2.9 5.2 -3.5 5.6 -0.6 0.4 -2.4 3.5 -4.2 7 -1.8 3.5 -3.6 6.6 -4.1 7 -0.4 0.4 -2 2.9 -3.4 5.6 -1.3 2.7 -3.2 6.2 -4.1 7.7 -1.7 2.8 -9.7 16.5 -16.7 28.4 -2.1 3.6 -4.3 7.6 -4.9 8.7 -1.3 2.8 -16.8 29.5 -18.6 32.2 -0.8 1.1 -2.8 4.6 -4.3 7.7 -2.9 6 -5.7 10.8 -6.9 11.9 -1.3 1.3 -4.2 6.3 -5.7 9.8 -2.1 5 -11.5 20.3 -12.7 20.7 -0.6 0.3 -1.1 1.3 -1.1 2.1 0 1 -3.8 8 -8.4 15.7 -4.6 7.7 -8.4 14.8 -8.4 15.8 l0 1.7 -1.3 0 -1.4 0 -1 3.2 c-0.6 1.7 -1.3 3.4 -1.8 3.8 -1.1 1 -3.8 5.2 -7.1 11.9 -1.5 3.1 -3.9 7.6 -5.5 9.8 -2.9 4.9 -16.1 27.4 -17.5 30.2 -0.6 1.1 -1.7 3.2 -2.7 4.8 -1 1.5 -5.2 8.8 -9.4 16.1 -4.2 7.3 -8.4 14.6 -9.4 16.1 -0.8 1.5 -2.8 5 -4.1 7.7 -1.4 2.7 -3.4 5.7 -4.2 6.6 -1 1 -2.8 4.3 -4.2 7.4 -1.4 3.1 -2.9 5.6 -3.4 5.6 -0.4 0 -1.7 2.2 -2.8 4.9 -1.1 2.7 -2.4 4.9 -2.9 4.9 -0.6 0 -1.4 1.3 -2 2.8 -0.7 2.2 -7.6 14.4 -13.4 23.8 -2.5 4.2 -17.5 30.1 -18.5 32.2 -0.6 1.1 -2.9 5.3 -5.2 9.1 -2.2 3.9 -5.6 9.8 -7.6 13.3 -2 3.5 -5.2 8.8 -7.1 11.9 -1.8 3.1 -4.8 8.1 -6.3 11.2 -1.7 3.1 -3.8 6.9 -4.6 8.4 -1 1.5 -4.5 7.7 -8 13.7 -3.4 5.9 -6.7 10.8 -7.3 10.8 -0.7 0 -2 -1.5 -2.8 -3.5 -0.8 -2 -2.1 -3.5 -2.8 -3.5 -0.6 0 -1.1 -0.8 -1.1 -1.7 0 -1 -3.8 -8.1 -8.4 -15.8 -4.6 -7.7 -8.4 -14.7 -8.4 -15.7 0 -0.8 -0.6 -1.8 -1.3 -2.1 -1.1 -0.4 -6.3 -8.8 -11.3 -18.6 -1.5 -3.1 -4.5 -8.1 -6.3 -11.2 -2 -3.1 -5.2 -8.4 -7.1 -11.9 -2 -3.5 -5.3 -9.4 -7.6 -13.3 -2.2 -3.8 -4.6 -8 -5.2 -9.1 -1 -2.1 -16 -28 -18.5 -32.2 -5.9 -9.4 -12.7 -21.6 -13.4 -23.8 -0.6 -1.5 -1.4 -2.8 -2 -2.8 -0.6 0 -1.8 -2.2 -2.9 -4.9 -1.1 -2.7 -2.4 -4.9 -2.9 -4.9 -0.6 0 -1.7 -2 -2.5 -4.2 l-1.4 -4.3 0.8 -2.4 c0.6 -1.3 1.4 -2.7 1.8 -3.1 1.3 -1 7.6 -11.8 11.2 -19.2 1.5 -3.2 3.4 -6.3 4.2 -6.7 l1.4 -0.8 0 -2.8 0 -2.7 1.3 0 c0.7 0 1.5 -1.1 2.1 -2.4 0.4 -1.4 1.4 -3.5 2.1 -4.6 0.7 -1.1 3.9 -6.9 7.3 -12.6 3.2 -5.7 6.4 -10.6 7.1 -10.9 0.6 -0.3 1.1 -1.3 1.1 -2.1 0 -1 3.8 -8 8.4 -15.7 4.6 -7.7 8.4 -14.8 8.4 -15.7 l0 -1.8 1.4 0 1.4 0 0.8 -3.5 c0.4 -2 1.4 -3.5 2 -3.5 0.6 0 1.4 -1.1 2 -2.4 0.4 -1.4 2.7 -5.6 4.9 -9.5 2.2 -3.8 5 -8.5 6.2 -10.5 1 -2 5 -9 9 -15.5 3.8 -6.7 7.4 -13 8 -14 0.6 -1.1 1.7 -3.2 2.7 -4.8 1 -1.5 5.2 -8.8 9.4 -16.1 4.2 -7.3 8.4 -14.6 9.4 -16.1 1 -1.5 2.8 -5 4.2 -7.7 1.4 -2.7 3.2 -5.7 4.2 -6.6 0.8 -1 2.7 -4.3 4.1 -7.4 1.4 -3.1 2.9 -5.6 3.4 -5.6 0.4 0 1.7 -2.2 2.8 -4.9 1.1 -2.7 2.4 -4.9 2.9 -4.9 0.6 0 1.4 -1.3 2 -2.8 0.7 -2.2 7.6 -14.4 13.4 -23.8 7 -11.3 17.8 -30.8 16.9 -30.8 -48.2 -0.4 -509.2 0.3 -509.6 0.7 -0.7 0.6 0 2.2 2.9 7 2.2 3.6 11.9 20.3 16.4 28 2 3.5 6.2 10.8 9.5 16.2 3.2 5.5 5.9 10.5 5.9 11.2 0 0.6 0.8 2 1.8 2.9 1 1 2.9 4.1 4.2 6.7 1.4 2.7 3.2 6.2 4.2 7.7 5.7 9.4 10.4 17.1 11.2 18.9 0.6 1.1 2.9 5.3 5.2 9.1 2.1 3.9 5.5 9.7 7.1 13 1.7 3.2 3.6 5.9 4.3 5.9 0.6 0 1.1 0.8 1.1 1.8 0 0.8 3.8 8 8.4 15.7 4.6 7.7 8.4 14.6 8.4 15.1 0 0.7 1.4 3.2 3.2 5.6 4.2 6 6 9 9.2 15.7 2.9 5.6 5.9 10.6 7.1 11.9 1.3 1.3 4.2 6.3 5.6 9.5 0.8 1.8 4.9 9.1 9.1 16.2 4.2 7 7.7 13.6 7.7 14.6 0 1 0.6 1.7 1.1 1.7 0.7 0 2.7 2.7 4.3 6 3.2 6 4.1 7.4 19.7 34.9 5 8.7 9.4 16.4 9.5 16.9 0.6 1.1 -1.7 5.9 -7.8 16.7 -5.3 9.2 -14.7 25.1 -16.7 28.4 -1 1.5 -2.1 3.8 -2.7 4.9 -0.7 1.1 -3.1 5.3 -5.6 9.1 -2.4 3.9 -4.8 8.4 -5.3 10.2 -0.6 1.7 -1.5 3.1 -2.1 3.1 -0.6 0 -1.8 2.2 -2.9 4.9 -1.1 2.7 -2.4 4.9 -2.9 4.9 -0.6 0 -1.4 1.3 -2 2.8 -0.4 1.4 -3.5 7.1 -6.7 12.6 -3.2 5.5 -7.4 12.6 -9.4 16.1 -4.5 7.7 -14.1 24.4 -16.4 28 -1 1.5 -2.1 3.6 -2.7 4.8 -0.6 1 -4.2 7.3 -8 14 -3.9 6.6 -8 13.9 -9.2 16 -1.3 2.2 -2.9 5.3 -3.9 7 l-1.7 2.9 -1 -2.7z"/><path d="M1665.2 1075.9 c-0.6 -1.5 -1.4 -3.1 -2 -3.5 -1.7 -1.3 -12.6 -20.4 -12.6 -22.1 0 -1 -0.6 -1.7 -1.1 -1.7 -0.7 0 -2.7 -2.7 -4.3 -5.9 -4.9 -9.2 -14.3 -25.6 -30.5 -53.1 -3.4 -5.5 -6 -10.5 -6 -11.2 0 -0.6 -0.8 -2 -1.7 -2.9 -1 -1 -2.8 -3.6 -3.9 -6 -1.1 -2.2 -2.9 -5.2 -4.1 -6.3 l-2.1 -2.1 68.5 -0.4 c37.5 -0.1 68.6 0 69 0.4 0.4 0.4 -0.1 1.8 -1.3 3.1 -1.1 1.4 -2.8 4.1 -3.9 6 -1.1 2 -4.9 8.7 -8.5 14.8 -3.6 6.3 -7 12.3 -7.6 13.3 -0.6 1.1 -1.7 3.2 -2.7 4.8 -2.2 3.6 -11.9 20.3 -16.4 28 -2 3.5 -6.2 10.8 -9.4 16.2 -3.4 5.5 -6 10.5 -6 11.2 0 0.6 -0.8 2 -1.8 2.9 -1 1 -3.8 5.3 -6.2 9.5 l-4.5 7.7 -1 -2.8z"/></g></svg>