<svg xmlns="http://www.w3.org/2000/svg" xmlns:xlink="http://www.w3.org/1999/xlink" width="480" height="480" fill-rule="nonzero" viewBox="0 0 256 256"><g fill="#fff" fill-rule="nonzero" stroke="none" stroke-dashoffset="0" stroke-linecap="butt" stroke-linejoin="miter" stroke-miterlimit="10" stroke-width="1" font-family="none" font-size="none" font-weight="none" text-anchor="none" style="mix-blend-mode:normal"><g><path d="M19,3h-14c-1.1,0 -2,0.9 -2,2v14c0,1.1 0.9,2 2,2h14c1.1,0 2,-0.9 2,-2v-14c0,-1.1 -0.9,-2 -2,-2zM9.79,9.302h-1.116v2.512h1.116c0.744,0 0.93,-0.558 0.93,-1.209c0.001,-0.652 -0.278,-1.303 -0.93,-1.303zM9.79,13.116h-1.116v2.054c0,0.458 -0.372,0.83 -0.83,0.83h-0.014c-0.458,0 -0.83,-0.372 -0.83,-0.83v-6.34c0,-0.458 0.372,-0.83 0.83,-0.83h1.868c2.326,0 2.605,2.14 2.605,2.605c-0.001,1.86 -1.303,2.511 -2.513,2.511zM16.835,11.6c-0.074,-0.008 -0.473,-0.047 -0.551,-0.047c-0.637,0 -0.842,0.402 -0.92,0.598v3.019c0,0.458 -0.372,0.83 -0.83,0.83h-0.004c-0.458,0 -0.83,-0.372 -0.83,-0.83v-4.435c0,-0.406 0.329,-0.735 0.735,-0.735h0.143c0.386,0 0.707,0.299 0.733,0.685v0.001c0.125,-0.254 0.459,-0.803 1.084,-0.803c0.274,0 0.402,0.053 0.457,0.076z" transform="scale(10.66667,10.66667)"/></g></g></svg>