<?xml version="1.0" encoding="utf-8"?>
<svg viewBox="0 0 500 500" xmlns="http://www.w3.org/2000/svg" xmlns:bx="https://boxy-svg.com">
  <defs>
    <linearGradient id="gradient-1" bx:pinned="true">
      <stop offset="0" style="stop-color: rgb(61, 10, 155);"/>
      <stop offset="1" style="stop-color: rgb(167, 1, 112);"/>
    </linearGradient>
  </defs>
  <path d="M -24.959 443.753 L -5.554 451.373 C 13.851 459.136 52.661 474.161 91.471 468.544 C 130.281 462.713 169.092 436.241 207.902 424.686 C 246.712 413.346 285.522 416.923 324.332 424.686 C 363.142 432.306 401.952 443.753 440.762 455.201 C 479.573 466.648 518.383 478.096 537.788 483.819 L 557.193 489.543 L 557.193 500.991 L 537.788 500.991 C 518.383 500.991 479.573 500.991 440.762 500.991 C 401.952 500.991 363.142 500.991 324.332 500.991 C 285.522 500.991 246.712 500.991 207.902 500.991 C 169.092 500.991 130.281 500.991 91.471 500.991 C 52.661 500.991 13.851 500.991 -5.554 500.991 L -24.959 500.991 Z" style="fill: url(#gradient-1); paint-order: fill;"/>
</svg>